<svg viewBox="0 0 195.43 65.14" height="126.721" width="380.19" xmlns="http://www.w3.org/2000/svg" shape-rendering="geometricPrecision" text-rendering="geometricPrecision" image-rendering="optimizeQuality" fill-rule="evenodd" clip-rule="evenodd" data-type="ugc" role="img" preserveAspectRatio="xMidYMid meet" style="">
    <g>
        <path d="M108.97.73h81.59c2.28 0 4.14 1.87 4.14 4.14v45.92c0 2.28-1.87 4.14-4.14 4.14H131.5l-12.28 8.79v-8.79h-10.25c-2.28 0-4.14-1.86-4.14-4.14V4.87c0-2.28 1.86-4.14 4.14-4.14z" fill="none" stroke="#fecc00" stroke-width="1.46" stroke-miterlimit="22.926"></path>
        <path d="M90.43 19.77c-4.13 0-6.73 2.18-8.07 5.35v-4.93h-2.03v21.02h2.03V30.58c0-5.24 2.75-8.87 7.64-8.87 3.71 0 5.96 2.14 5.96 6.38V41.2h2.03V27.82c0-5.16-2.83-8.07-7.57-8.07z" fill="#56698f" fill-rule="nonzero"></path>
        <path d="M64.33 19.77c-5.92 0-10.78 4.63-10.78 10.93 0 6.27 4.78 10.93 10.78 10.93 6.04 0 10.78-4.66 10.78-10.93 0-6.31-4.82-10.93-10.78-10.93zm0 1.95c4.82 0 8.72 3.75 8.72 8.98 0 5.2-3.86 8.98-8.72 8.98-4.85 0-8.71-3.78-8.71-8.98 0-5.27 3.9-8.98 8.71-8.98z" fill="#56698f" fill-rule="nonzero"></path>
        <path d="M41.39 41.63c4.51 0 8.37-2.03 8.37-6.19 0-3.63-2.94-4.43-8.29-5.81-4.93-1.26-6.92-1.76-6.92-3.94 0-2.45 2.56-3.97 6.15-3.97 3.17 0 5.7 1.22 6.65 3.86h2.06c-.92-3.71-4.2-5.81-8.75-5.81-4.62 0-8.14 2.18-8.14 6.08 0 3.13 2.26 4.13 8.29 5.66 4.32 1.11 6.88 1.57 6.88 4.09 0 2.71-2.87 4.09-6.34 4.09-4.2 0-6.96-1.49-7.91-5.05h-2.06c.88 4.47 4.59 6.99 10.01 6.99z" fill="#56698f" fill-rule="nonzero"></path>
        <path d="M13.76 14.03C6.04 14.03 0 19.95 0 27.83c0 7.87 6 13.8 13.76 13.8s13.72-5.92 13.72-13.8c0-7.87-5.96-13.8-13.72-13.8zm0 1.95c6.54 0 11.7 5.08 11.66 11.85.04 6.77-5.12 11.85-11.66 11.85-6.57 0-11.7-5.08-11.7-11.85s5.12-11.85 11.7-11.85z" fill="#56698f" fill-rule="nonzero"></path>
        <path d="M178.01 26.65c-6.34-1.41-8.14-2.48-8.14-5.08 0-3.59 3.06-5.62 7.38-5.62 4.17 0 6.96 1.68 8.18 4.63h2.03c-1.11-3.82-4.47-6.54-10.28-6.54-5.2 0-9.33 2.75-9.33 7.45 0 4.47 3.63 5.77 9.71 7.15 5.5 1.22 8.29 1.99 8.29 5.43 0 3.63-3.02 5.66-7.64 5.66-5.08 0-8.06-2.22-9.1-6.27h-2.03c.92 4.74 4.43 8.18 11.2 8.18 5.27 0 9.59-2.52 9.59-7.68 0-4.85-3.86-5.96-9.86-7.3z" fill="#fecc00" fill-rule="nonzero"></path>
        <path fill="#fecc00" fill-rule="nonzero" d="M158.98 14.45l-9.29 13.99-9.36-13.99h-2.68v26.76h2.03V16.82l9.86 14.87h.23l9.9-14.87v24.39h2.02V14.45h-2.71z"></path>
        <path d="M122.59 26.65c-6.35-1.41-8.14-2.48-8.14-5.08 0-3.59 3.06-5.62 7.38-5.62 4.17 0 6.96 1.68 8.18 4.63h2.03c-1.11-3.82-4.47-6.54-10.28-6.54-5.2 0-9.33 2.75-9.33 7.45 0 4.47 3.63 5.77 9.71 7.15 5.5 1.22 8.29 1.99 8.29 5.43 0 3.63-3.02 5.66-7.64 5.66-5.08 0-8.06-2.22-9.1-6.27h-2.03c.92 4.74 4.43 8.18 11.2 8.18 5.27 0 9.59-2.52 9.59-7.68 0-4.85-3.86-5.96-9.86-7.3z" fill="#fecc00" fill-rule="nonzero"></path>
    </g>
</svg>